<svg width="512" height="512" viewBox="0 0 512 512" xmlns="http://www.w3.org/2000/svg">
  <defs>
    <linearGradient id="iconGrad" x1="0%" y1="0%" x2="100%" y2="100%">
      <stop offset="0%" stop-color="#1d4ed8"/>
      <stop offset="100%" stop-color="#0f172a"/>
    </linearGradient>
  </defs>
  <rect width="512" height="512" rx="128" fill="url(#iconGrad)"/>
  <path d="M256 136c-46 0-84 38-84 84v28h-20c-20 0-36 16-36 36v72c0 20 16 36 36 36h208c20 0 36-16 36-36v-72c0-20-16-36-36-36h-20v-28c0-46-38-84-84-84zm-42 112v-28c0-23 19-42 42-42s42 19 42 42v28h-84zm42 36a28 28 0 1 1 0 56 28 28 0 0 1 0-56z" fill="#f8fafc"/>
</svg>

